<svg xmlns="http://www.w3.org/2000/svg" xmlns:xlink="http://www.w3.org/1999/xlink" viewBox="0 0 179.74 153.25"><defs><style>.cls-1{fill:none;}.cls-2{fill:#fff5af;}.cls-11,.cls-2,.cls-5,.cls-9{fill-rule:evenodd;}.cls-3{clip-path:url(#clip-path);}.cls-4{fill:url(#linear-gradient);}.cls-5{fill:#f9efae;}.cls-6{fill:#f05a2c;}.cls-7{clip-path:url(#clip-path-2);}.cls-8{fill:url(#linear-gradient-2);}.cls-14,.cls-9{fill:#f2e59c;}.cls-10{fill:#c73d40;}.cls-11{fill:#9e5543;}.cls-12{clip-path:url(#clip-path-3);}.cls-13{fill:url(#linear-gradient-3);}.cls-15{fill:#c33d3e;}.cls-16{clip-path:url(#clip-path-4);}.cls-17{fill:url(#linear-gradient-4);}.cls-18{fill:#f6f3b5;}.cls-19{fill:url(#linear-gradient-5);}.cls-20{fill:url(#linear-gradient-6);}.cls-21{fill:#f0de39;}.cls-22{fill:url(#linear-gradient-7);}.cls-23{fill:url(#linear-gradient-8);}.cls-24{fill:url(#linear-gradient-9);}.cls-25{fill:url(#linear-gradient-10);}.cls-26{fill:url(#linear-gradient-11);}.cls-27{fill:#fff;}</style><clipPath id="clip-path"><path class="cls-1" d="M136.54,1.27,121.05,94.16a144.58,144.58,0,0,0-17.63-1.07,146.71,146.71,0,0,0-49.56,8.63L69.46,8.1a144.51,144.51,0,0,0,19,1.26,147.46,147.46,0,0,0,48-8.09m.39-1A146.36,146.36,0,0,1,88.5,8.5,144,144,0,0,1,69.17,7.2l-.39-.06L52.8,103h0l.66-.25a146.3,146.3,0,0,1,67.88-7.7l.39,0L137.59,0Z"/></clipPath><linearGradient id="linear-gradient" x1="-5523.48" y1="1859.44" x2="-5522.27" y2="1859.44" gradientTransform="translate(387362.33 -130333.65) scale(70.12)" gradientUnits="userSpaceOnUse"><stop offset="0" stop-color="#e8282b"/><stop offset="1" stop-color="#7c171b"/></linearGradient><clipPath id="clip-path-2"><path class="cls-1" d="M36,51.41c0,13,11.37,23,28.05,27.94,7.84,2.32,12.53,2.76,21,3.37,12.69.92,14.58,1.1,18.87,7,0,0,0,0,0,.06v0C135.76,80.6,154.4,67,154.4,51.41c0-13.11-11.41-23-28-27.94-8-2.38-12.72-2.81-20.94-3.36-10.84-.74-14.38-.92-19-7l0-.09C54.52,21.82,36,36.34,36,51.41"/></clipPath><linearGradient id="linear-gradient-2" x1="-5535.23" y1="1864.75" x2="-5534.02" y2="1864.75" gradientTransform="translate(544671.08 -183429.16) scale(98.39)" xlink:href="#linear-gradient"/><clipPath id="clip-path-3"><path class="cls-1" d="M38.86,51.57v.14C38.93,68,64.09,81.24,95.12,81.25h.08c31.08,0,56.28-13.27,56.28-29.61S126.26,22,95.16,22,38.93,35.25,38.86,51.57"/></clipPath><linearGradient id="linear-gradient-3" x1="-5533.73" y1="1864.07" x2="-5532.52" y2="1864.07" gradientTransform="translate(517872.82 -174384.23) scale(93.58)" xlink:href="#linear-gradient"/><clipPath id="clip-path-4"><polygon class="cls-1" points="95.45 15.71 92.11 12.1 90.31 15.92 84.9 14.34 88.36 18.68 102.53 18.68 105.99 14.34 100.58 15.92 98.78 12.1 95.45 15.71"/></clipPath><linearGradient id="linear-gradient-4" x1="-5400" y1="1803.27" x2="-5398.79" y2="1803.27" gradientTransform="translate(94284.24 -31441.38) scale(17.44)" xlink:href="#linear-gradient"/><linearGradient id="linear-gradient-5" x1="187.2" y1="103.86" x2="151.39" y2="117.33" gradientUnits="userSpaceOnUse"><stop offset="0" stop-color="#e8282b"/><stop offset="0.16" stop-color="#d82128"/><stop offset="1" stop-color="#7c171b"/></linearGradient><linearGradient id="linear-gradient-6" x1="0.4" y1="136.35" x2="33.46" y2="136.35" gradientTransform="matrix(1, 0, 0, 1, 0, 0)" xlink:href="#linear-gradient"/><linearGradient id="linear-gradient-7" x1="158.61" y1="107.7" x2="142.62" y2="107.91" gradientUnits="userSpaceOnUse"><stop offset="0.01" stop-color="#401615"/><stop offset="0.14" stop-color="#6b4c2f"/><stop offset="0.38" stop-color="#a38853"/><stop offset="0.58" stop-color="#e3d2b3"/><stop offset="0.8" stop-color="#947957"/><stop offset="0.8" stop-color="#947957"/><stop offset="0.96" stop-color="#804f30"/></linearGradient><linearGradient id="linear-gradient-8" x1="-1639.78" y1="7014.33" x2="-1655.47" y2="7014.54" gradientTransform="translate(-1618.36 7159.45) rotate(180)" xlink:href="#linear-gradient-7"/><linearGradient id="linear-gradient-9" x1="116.34" y1="123.68" x2="20.62" y2="135.2" gradientUnits="userSpaceOnUse"><stop offset="0" stop-color="#e8282b"/><stop offset="0.05" stop-color="#e12529"/><stop offset="1" stop-color="#7c171b"/></linearGradient><linearGradient id="linear-gradient-10" x1="119.01" y1="108.07" x2="102.52" y2="111.97" gradientTransform="matrix(1, 0, 0, 1, 0, 0)" xlink:href="#linear-gradient"/><linearGradient id="linear-gradient-11" x1="21.11" y1="137.61" x2="159.88" y2="137.61" gradientTransform="matrix(1, 0, 0, 1, 0, 0)" xlink:href="#linear-gradient"/></defs><title>Asset 1</title><g id="Layer_2" data-name="Layer 2"><g id="Layer_1-2" data-name="Layer 1"><path class="cls-2" d="M137.06.64l-15.66,94a146.36,146.36,0,0,0-68.07,7.72L69.11,7.62a146.13,146.13,0,0,0,68-7"/><g class="cls-3"><rect class="cls-4" x="52.8" width="84.79" height="103"/></g><polygon class="cls-5" points="117.23 92.64 115.06 92.46 112.88 92.3 110.7 92.17 108.52 92.09 106.34 92.02 104.17 91.99 101.98 92 99.81 92.04 97.63 92.1 95.46 92.21 93.28 92.34 91.11 92.51 88.94 92.7 86.78 92.94 84.62 93.2 82.46 93.49 80.31 93.81 78.15 94.17 76.01 94.56 73.87 94.98 71.74 95.43 69.61 95.91 67.49 96.43 65.38 96.98 63.26 97.56 61.16 98.17 59.07 98.81 56.98 99.48 55.21 100.08 70.34 9.31 71.08 9.41 73.25 9.66 75.42 9.87 77.59 10.05 79.76 10.19 81.93 10.31 84.1 10.39 86.28 10.44 88.45 10.45 90.63 10.44 92.79 10.39 94.97 10.31 97.14 10.2 99.31 10.06 101.47 9.88 103.64 9.67 105.79 9.43 107.95 9.16 110.1 8.86 112.25 8.53 114.39 8.16 116.53 7.76 118.67 7.33 120.79 6.88 122.91 6.38 125.03 5.87 127.13 5.31 129.23 4.73 131.32 4.11 133.41 3.47 135.18 2.88 120.17 92.95 119.4 92.86 117.23 92.64"/><polygon class="cls-6" points="117.23 92.64 117.26 92.22 115.09 92.03 112.9 91.88 110.72 91.75 108.53 91.66 106.35 91.6 104.17 91.58 101.98 91.58 99.8 91.61 97.61 91.68 95.44 91.79 93.25 91.92 91.08 92.09 88.91 92.28 86.74 92.51 84.56 92.78 82.41 93.07 80.24 93.4 78.09 93.75 75.94 94.15 73.79 94.57 71.65 95.02 69.52 95.5 67.39 96.02 65.27 96.57 63.15 97.15 61.05 97.75 58.95 98.4 56.85 99.08 55.73 99.46 70.67 9.78 71.04 9.83 73.21 10.07 75.38 10.29 77.56 10.47 79.74 10.61 81.91 10.73 84.09 10.81 86.27 10.86 88.45 10.87 90.63 10.86 92.81 10.81 94.99 10.73 97.16 10.62 99.33 10.47 101.51 10.3 103.67 10.09 105.83 9.85 108 9.58 110.16 9.27 112.31 8.94 114.46 8.57 116.6 8.18 118.75 7.75 120.88 7.29 123 6.79 125.12 6.27 127.24 5.72 129.34 5.13 131.43 4.51 133.53 3.87 134.67 3.49 119.83 92.49 119.45 92.44 117.26 92.22 117.26 92.22 117.23 92.64 117.19 93.06 119.36 93.28 120.51 93.41 135.7 2.28 133.28 3.07 131.21 3.71 129.12 4.32 127.03 4.91 124.92 5.46 122.82 5.97 120.7 6.46 118.58 6.92 116.45 7.35 114.32 7.75 112.19 8.11 110.04 8.45 107.9 8.75 105.75 9.02 103.59 9.26 101.43 9.46 99.28 9.64 97.12 9.78 94.95 9.89 92.78 9.98 90.62 10.02 88.45 10.04 86.28 10.02 84.12 9.97 81.95 9.89 79.79 9.78 77.62 9.63 75.46 9.45 73.29 9.24 71.14 8.99 70 8.85 54.7 100.69 57.11 99.88 59.19 99.2 61.27 98.56 63.37 97.96 65.47 97.38 67.59 96.84 69.7 96.32 71.82 95.84 73.95 95.39 76.09 94.97 78.22 94.58 80.37 94.23 82.52 93.91 84.67 93.61 86.83 93.35 88.99 93.12 91.14 92.92 93.31 92.76 95.48 92.62 97.65 92.52 99.81 92.46 101.99 92.42 104.16 92.41 106.33 92.44 108.51 92.5 110.68 92.59 112.85 92.72 115.03 92.87 117.19 93.06 117.23 92.64 117.19 93.06 117.23 92.64"/><g class="cls-7"><rect class="cls-8" x="35.98" y="13" width="118.42" height="76.82"/></g><path class="cls-9" d="M95.2,18.54c32.7,0,59.2,14.75,59.2,32.94S127.9,84.42,95.2,84.42,36,69.67,36,51.48,62.5,18.54,95.2,18.54"/><path class="cls-10" d="M95.2,18.54V19c16.28,0,31,3.67,41.67,9.59a40.2,40.2,0,0,1,12.57,10.37A20.68,20.68,0,0,1,154,51.48,18.53,18.53,0,0,1,152.82,58a26.69,26.69,0,0,1-7.26,10.28c-5.13,4.7-12.38,8.65-21,11.41A97.29,97.29,0,0,1,95.2,84c-16.29,0-31-3.67-41.67-9.59A40.18,40.18,0,0,1,41,64.05,23.72,23.72,0,0,1,37.57,58a18.44,18.44,0,0,1,0-13,26.87,26.87,0,0,1,7.26-10.28c5.14-4.7,12.38-8.65,21-11.4A96.87,96.87,0,0,1,95.2,19v-.85c-16.41,0-31.27,3.7-42.06,9.7A41,41,0,0,0,40.32,38.4a21.52,21.52,0,0,0-4.74,13.08,21.52,21.52,0,0,0,4.74,13.08,37.26,37.26,0,0,0,9,8.22,67.19,67.19,0,0,0,20.13,8.8A100.27,100.27,0,0,0,95.2,84.85c16.41,0,31.27-3.7,42.06-9.7a41.09,41.09,0,0,0,12.82-10.59,24.36,24.36,0,0,0,3.5-6.29,19.21,19.21,0,0,0,0-13.58,27.3,27.3,0,0,0-7.47-10.6c-5.25-4.81-12.59-8.8-21.32-11.59A98.19,98.19,0,0,0,95.2,18.11Z"/><polygon class="cls-11" points="95.16 20.51 98.1 20.55 101 20.67 103.85 20.86 106.67 21.13 109.43 21.46 112.14 21.87 114.8 22.34 117.39 22.88 119.93 23.48 122.4 24.14 124.8 24.87 127.13 25.66 129.38 26.5 131.56 27.4 133.65 28.35 135.65 29.35 137.57 30.41 139.39 31.52 141.12 32.67 142.75 33.88 144.28 35.13 145.69 36.42 146.99 37.77 148.18 39.15 149.26 40.58 150.2 42.05 151.01 43.56 151.7 45.11 152.24 46.69 152.62 48.31 152.87 49.97 152.95 51.64 152.87 53.31 152.62 54.96 152.24 56.58 151.7 58.17 151.01 59.71 150.2 61.23 149.26 62.7 148.18 64.13 146.99 65.51 145.69 66.85 144.28 68.14 142.75 69.4 141.12 70.6 139.39 71.76 137.57 72.86 135.65 73.92 133.65 74.92 131.56 75.87 129.38 76.78 127.13 77.62 124.8 78.4 122.4 79.13 119.93 79.79 117.39 80.4 114.8 80.94 112.14 81.41 109.43 81.81 106.67 82.14 103.85 82.41 101 82.61 98.1 82.72 95.16 82.76 92.23 82.72 89.33 82.61 86.47 82.41 83.67 82.14 80.9 81.81 78.19 81.41 75.53 80.94 72.94 80.4 70.41 79.79 67.93 79.13 65.53 78.4 63.21 77.62 60.95 76.78 58.77 75.87 56.69 74.92 54.68 73.92 52.77 72.86 50.94 71.76 49.21 70.6 47.59 69.4 46.06 68.14 44.65 66.85 43.34 65.51 42.15 64.13 41.08 62.7 40.13 61.23 39.32 59.71 38.64 58.17 38.1 56.58 37.7 54.96 37.46 53.31 37.39 51.64 37.46 49.97 37.7 48.31 38.1 46.69 38.64 45.11 39.32 43.56 40.13 42.05 41.08 40.58 42.15 39.15 43.34 37.77 44.65 36.42 46.06 35.13 47.59 33.88 49.21 32.67 50.94 31.52 52.77 30.41 54.68 29.35 56.69 28.35 58.77 27.4 60.95 26.5 63.21 25.66 65.53 24.87 67.93 24.14 70.41 23.48 72.94 22.88 75.53 22.34 78.19 21.87 80.9 21.46 83.67 21.13 86.47 20.86 89.33 20.67 92.23 20.55 95.16 20.51"/><g class="cls-12"><rect class="cls-13" x="38.86" y="22.03" width="112.62" height="59.22"/></g><path class="cls-14" d="M60.38,40.67a5.63,5.63,0,0,0-5.21,5.46l-.91-.31,1.37-8.51a1.36,1.36,0,0,0,1,.78,9.44,9.44,0,0,0,1.49.11l10,0a12.52,12.52,0,0,0,2-.07,1,1,0,0,0,1-.74l1.36,8.47-.9.27A6.14,6.14,0,0,0,70.37,43a6.45,6.45,0,0,0-2.08-1.78,4.24,4.24,0,0,0-1-.41,3.34,3.34,0,0,0-1-.15V58a6.43,6.43,0,0,0,.29,2c.18.58.84.86,2,.86v1.09H58.11V60.82a1.93,1.93,0,0,0,1.74-.6,3,3,0,0,0,.5-1.41,1,1,0,0,0,0-.25V40.67Z"/><path class="cls-14" d="M79.56,49.76a15.77,15.77,0,0,0,1.32,6.36,5.67,5.67,0,0,0,2.47,2.8,2.21,2.21,0,0,0,.51.18,2.29,2.29,0,0,0,.51.06A3.67,3.67,0,0,0,87,57a11.77,11.77,0,0,0,1.13-5.68c0-.13,0-.27,0-.41s0-.29,0-.44v-.16a2.34,2.34,0,0,1,0-.38v-.35a15.88,15.88,0,0,0-1.53-6A4.88,4.88,0,0,0,84,41l-.36-.08a1.42,1.42,0,0,0-.36,0H83.1c-.89.1-1.72.86-2.47,2.26A13.27,13.27,0,0,0,79.5,49.3s0,.06,0,.11a1,1,0,0,1,0,.12.32.32,0,0,0,0,.14s0,.08,0,.13Zm-6.33,0q0-5.91,3.16-8.93a10.76,10.76,0,0,1,7-3.21h1.05a10.76,10.76,0,0,1,7,3.4q3.21,3.18,3.2,9.36,0,6-3.27,8.89a10.6,10.6,0,0,1-7.25,2.94h-.43a11.15,11.15,0,0,1-7.19-3.27q-3.27-3.07-3.27-9.14Z"/><path class="cls-14" d="M110.63,47.52v-6a1.5,1.5,0,0,0,0-.29,2.89,2.89,0,0,0-.45-1.32,1.54,1.54,0,0,0-1.41-.61V38.16h6v1.13a1.18,1.18,0,0,0-1,.59,3.71,3.71,0,0,0-.45,1.26,7,7,0,0,0-.08.87c0,.27,0,.5,0,.68V58.27c0,.18,0,.37,0,.56s0,.4.05.63a2.87,2.87,0,0,0,.34,1,.86.86,0,0,0,.84.46h.07a.2.2,0,0,1,.11,0h.08l.08,0v1.09h-6V60.82a1.27,1.27,0,0,0,1.55-1.36,3.75,3.75,0,0,0-.08-.69A6.69,6.69,0,0,0,110,58c-.08-.24-.17-.47-.27-.7s-.19-.45-.29-.66a3.57,3.57,0,0,0-.25-.48c-.08-.15-.15-.26-.22-.37L100.1,42.92V58.58c0,.2,0,.41,0,.61a3.33,3.33,0,0,0,.33,1.2.89.89,0,0,0,.88.54h.08a.17.17,0,0,1,.1,0h.08l.08,0v1.09H96V60.82s0,0,0,.06h.1a.11.11,0,0,1,.07,0h.06a.93.93,0,0,0,.9-.54,3.15,3.15,0,0,0,.34-1.2c0-.2,0-.41,0-.61s0-.39,0-.55V41.72a2.9,2.9,0,0,0,0-.43,3.25,3.25,0,0,0-.34-1.35A1.21,1.21,0,0,0,96,39.33V38.16h11.11v1.13a1.19,1.19,0,0,0-.54.34,1.08,1.08,0,0,0-.26.51.22.22,0,0,0,0,.13v.1a.93.93,0,0,0,0,.27,1.34,1.34,0,0,0,.09.31l.11.27a.86.86,0,0,0,.11.19.22.22,0,0,0,0,.08l0,.08Z"/><path class="cls-14" d="M122.74,49.76a13.67,13.67,0,0,1,1.41.33,5.91,5.91,0,0,1,1.1.45,6.79,6.79,0,0,1,.62.42q.31.23.69.54l-2-8Zm-1,3.44-1.36,5.07a1,1,0,0,1,0,.19.42.42,0,0,1,0,.15v.12c0,.15-.07.3-.09.42a1.59,1.59,0,0,0,0,.36c0,.56.16.93.46,1.09a2.17,2.17,0,0,0,1.09.25v1.09H115.2V60.82a.06.06,0,0,0,.07,0,.16.16,0,0,1,.09,0,3.43,3.43,0,0,0,1.22-.93,4.61,4.61,0,0,0,.88-1.86l5-16.23a2.32,2.32,0,0,0,.08-.22c0-.08.06-.18.11-.29a.4.4,0,0,1,0-.15.54.54,0,0,0,0-.19c0-.13.07-.27.11-.41a1.73,1.73,0,0,0,0-.37v-.11a1.1,1.1,0,0,0-.17-.48.58.58,0,0,0-.45-.26V38.16h8.66v1.13a.68.68,0,0,0-.51.25.76.76,0,0,0-.17.48,2.11,2.11,0,0,0,0,.31c0,.13.05.27.09.43a1.37,1.37,0,0,1,0,.25c0,.09,0,.18.05.28l4.75,17.29c0,.07,0,.13,0,.17a.51.51,0,0,1,0,.13,4.26,4.26,0,0,0,.73,1.53,1.33,1.33,0,0,0,1.07.44v1.09H127V60.82a1.45,1.45,0,0,0,1.21-.58,2.05,2.05,0,0,0,.37-1.2,3.93,3.93,0,0,0-.07-.74c-.06-.25-.12-.51-.2-.77a7.25,7.25,0,0,0-.75-1.43,5.3,5.3,0,0,0-1-1.16l-.49-.34a6.31,6.31,0,0,0-.57-.39,9.79,9.79,0,0,0-1.16-.66,4,4,0,0,0-1.26-.39.65.65,0,0,0-.2,0h-.42a.72.72,0,0,0-.22,0l-.24,0a1.28,1.28,0,0,0-.23.06Z"/><polygon class="cls-14" points="78.83 69.62 81.01 69.62 81.01 71.54 83.3 69.62 86.2 69.62 83.62 71.53 86.31 74.69 83.62 74.69 82.14 72.61 81.01 73.45 81.01 74.69 78.83 74.69 78.83 69.62"/><path class="cls-14" d="M88.29,72.86a.86.86,0,0,0,.28.72,1,1,0,0,0,.7.24A1.1,1.1,0,0,0,90,73.6a1,1,0,0,0,.27-.76.84.84,0,0,0-.28-.7.94.94,0,0,0-.67-.23,1,1,0,0,0-.71.23.89.89,0,0,0-.28.72m-2,0a1.63,1.63,0,0,1,.78-1.38,3.77,3.77,0,0,1,2.14-.54,3.59,3.59,0,0,1,2.32.64,1.56,1.56,0,0,1,.63,1.26,1.63,1.63,0,0,1-.78,1.39,3.78,3.78,0,0,1-2.17.54,3.88,3.88,0,0,1-2-.45,1.63,1.63,0,0,1-.93-1.46"/><path class="cls-14" d="M93.16,71H95v.6a1.64,1.64,0,0,1,.55-.54,1.54,1.54,0,0,1,.69-.14,2.67,2.67,0,0,1,1,.19l-.61,1A2,2,0,0,0,96,72a.77.77,0,0,0-.59.22,1.82,1.82,0,0,0-.31,1.21v1.23h-2Z"/><path class="cls-14" d="M99.14,75.26l.14-.41a5.18,5.18,0,0,1,.85-.08,2.28,2.28,0,0,1,1.13.2.55.55,0,0,1,.32.48.54.54,0,0,1-.15.34,1,1,0,0,1-.5.28,3.65,3.65,0,0,1-1,.11,11.07,11.07,0,0,1-1.3-.09v-.43a7.3,7.3,0,0,0,1.07.07,1.21,1.21,0,0,0,.56-.08.23.23,0,0,0,.15-.2.24.24,0,0,0-.12-.18.78.78,0,0,0-.38-.07,6.17,6.17,0,0,0-.8.06m2.2-2a.86.86,0,0,1-.4.44,1.38,1.38,0,0,1-.64.14,1.21,1.21,0,0,1-.76-.23.83.83,0,0,1-.3-.69.94.94,0,0,1,.3-.76,1.22,1.22,0,0,1,.79-.25,1.32,1.32,0,0,1,.61.12.62.62,0,0,1,.31.35l1.85-.17a1.91,1.91,0,0,0-.92-.94,4.54,4.54,0,0,0-1.91-.32,5,5,0,0,0-1.47.17,2.76,2.76,0,0,0-.7.32,1.87,1.87,0,0,0-.54.5,1.8,1.8,0,0,0,0,1.81,2,2,0,0,0,.61.57,2.78,2.78,0,0,0,.93.36,7.23,7.23,0,0,0,1.36.11,4.55,4.55,0,0,0,1.39-.18,2.56,2.56,0,0,0,.9-.47,1.77,1.77,0,0,0,.5-.72Z"/><path class="cls-14" d="M107.19,69.69h1.27v.87h-1.27Zm-2,0h1.26v.87h-1.26Zm2.65,2.84a.8.8,0,0,0-.31-.58,1.07,1.07,0,0,0-.65-.18,1,1,0,0,0-.75.27.76.76,0,0,0-.23.49Zm2,.67h-3.93a.74.74,0,0,0,.26.51,1.13,1.13,0,0,0,.74.23,1.49,1.49,0,0,0,.55-.1,1.35,1.35,0,0,0,.34-.23l1.93.13a2.56,2.56,0,0,1-1.07.79,5.23,5.23,0,0,1-1.8.24,5,5,0,0,1-1.6-.21,2.14,2.14,0,0,1-1-.65,1.52,1.52,0,0,1-.39-1,1.65,1.65,0,0,1,.77-1.39,3.77,3.77,0,0,1,2.13-.53,5.35,5.35,0,0,1,1.73.23,2.24,2.24,0,0,1,1,.7,1.93,1.93,0,0,1,.33,1.17Z"/><path class="cls-14" d="M89.18,25.84v4.44H87.8V27.37a4,4,0,0,1-.65.37,6.48,6.48,0,0,1-.79.27V27a3.28,3.28,0,0,0,1.09-.48,2,2,0,0,0,.6-.69Z"/><path class="cls-14" d="M93.24,27.35a.77.77,0,0,0-.2-.55.69.69,0,0,0-1,0,.78.78,0,0,0-.17.54.83.83,0,0,0,.18.57.67.67,0,0,0,.47.19.65.65,0,0,0,.48-.19.74.74,0,0,0,.19-.54M90.72,29.3l1.36-.15a.62.62,0,0,0,.19.36.42.42,0,0,0,.3.1.58.58,0,0,0,.52-.29,2.63,2.63,0,0,0,.2-.93,1.65,1.65,0,0,1-.5.34,1.79,1.79,0,0,1-.6.1,1.57,1.57,0,0,1-1.11-.42,1.36,1.36,0,0,1-.46-1.06,1.48,1.48,0,0,1,.23-.79,1.61,1.61,0,0,1,.64-.54,2.52,2.52,0,0,1,1-.18,2.79,2.79,0,0,1,1.18.22,1.7,1.7,0,0,1,.71.72,2.69,2.69,0,0,1,.27,1.29,2.38,2.38,0,0,1-.56,1.74,2.14,2.14,0,0,1-1.55.55,2.87,2.87,0,0,1-.93-.12,1.52,1.52,0,0,1-.56-.35,1.57,1.57,0,0,1-.35-.59"/><path class="cls-14" d="M97.81,27.35a.73.73,0,0,0-.2-.55.63.63,0,0,0-.49-.2.61.61,0,0,0-.45.18.78.78,0,0,0-.18.54.83.83,0,0,0,.19.57.67.67,0,0,0,.47.19.63.63,0,0,0,.47-.19.7.7,0,0,0,.19-.54M95.3,29.3l1.36-.15a.61.61,0,0,0,.18.36.48.48,0,0,0,.31.1.56.56,0,0,0,.51-.29,2.42,2.42,0,0,0,.2-.93,1.53,1.53,0,0,1-.5.34,1.79,1.79,0,0,1-.6.1,1.57,1.57,0,0,1-1.11-.42,1.38,1.38,0,0,1-.45-1.06,1.48,1.48,0,0,1,.23-.79,1.58,1.58,0,0,1,.63-.54,2.52,2.52,0,0,1,1-.18,2.84,2.84,0,0,1,1.19.22,1.7,1.7,0,0,1,.71.72,2.81,2.81,0,0,1,.27,1.29,2.34,2.34,0,0,1-.57,1.74,2.13,2.13,0,0,1-1.54.55,2.83,2.83,0,0,1-.93-.12,1.43,1.43,0,0,1-.91-.94"/><path class="cls-14" d="M103.81,30.28h-4.1a2.37,2.37,0,0,1,.43-1,5.38,5.38,0,0,1,1.34-1.12,4,4,0,0,0,.77-.6.66.66,0,0,0,.17-.4.45.45,0,0,0-.17-.34.64.64,0,0,0-.42-.14.6.6,0,0,0-.42.15.84.84,0,0,0-.23.51l-1.37-.09a1.86,1.86,0,0,1,.3-.8,1.29,1.29,0,0,1,.61-.45,3.11,3.11,0,0,1,1.08-.15,3.32,3.32,0,0,1,1.12.15,1.38,1.38,0,0,1,.63.45,1.09,1.09,0,0,1,.23.67,1.34,1.34,0,0,1-.26.77,3.64,3.64,0,0,1-1,.79c-.28.17-.46.29-.55.36l-.33.26h2.13Z"/><polygon class="cls-2" points="88.53 19.43 88.96 19.98 101.72 19.98 102.15 19.43 88.53 19.43"/><polygon class="cls-15" points="88.53 19.43 88.45 19.5 88.91 20.08 101.77 20.08 102.37 19.34 88.31 19.34 88.45 19.5 88.53 19.43 88.53 19.54 101.94 19.54 101.67 19.87 89 19.87 88.61 19.37 88.53 19.43 88.53 19.54 88.53 19.43"/><g class="cls-16"><rect class="cls-17" x="84.9" y="12.1" width="21.09" height="6.57"/></g><polygon class="cls-18" points="102.53 18.68 102.61 18.74 106.07 14.4 105.96 14.23 100.64 15.8 98.8 11.93 95.44 15.55 92.08 11.93 90.25 15.8 84.93 14.23 84.82 14.4 88.31 18.78 102.58 18.78 102.61 18.74 102.53 18.68 102.53 18.57 88.41 18.57 85.18 14.53 90.36 16.05 92.14 12.29 95.44 15.86 98.75 12.29 100.53 16.05 105.71 14.53 102.45 18.61 102.53 18.68 102.53 18.57 102.53 18.68"/><path class="cls-2" d="M91.23,20.42l-.66.55c1.8.65,6.25.66,7,.65s5.2,0,7-.65l-.66-.55Z"/><path class="cls-15" d="M91.23,20.42l-.06-.08-.8.67.17.06a8,8,0,0,0,1.58.35,40.54,40.54,0,0,0,5.16.31h.29v0h.3c.63,0,1.89,0,3.2-.11.67-.05,1.34-.11,2-.2a7.68,7.68,0,0,0,1.57-.35l.17-.06-.83-.7H91.2l0,0,.06.08v.1h12.63l.64.53.06-.08,0-.1a8.54,8.54,0,0,1-1.53.35,41.46,41.46,0,0,1-5.12.3h-.59c-.62,0-1.89,0-3.21-.11-.65,0-1.32-.1-1.93-.19a8.75,8.75,0,0,1-1.53-.35l0,.1.07.08.66-.55-.07-.08v0Z"/><path class="cls-19" d="M175.67,100.31s-8.59,3.9-20.43,1.46c0,0-9-1.11-9.18,4.39l1,24.86a131,131,0,0,1,32.64-8.49S166.82,113.69,175.67,100.31Z"/><path class="cls-20" d="M.4,129.69s18.61-1.87,28.42-7.16l4.36-1.34.28,26.05s-1.27,5.81-19.7,2.56a67.77,67.77,0,0,0-9.87,1.71S14.7,143.38.4,129.69Z"/><path class="cls-21" d="M0,128.67s18.73-2.53,20-4.21v1.37S16.84,128,1.73,129.69A1.68,1.68,0,0,0,0,128.67Z"/><path class="cls-21" d="M146.2,105.58s.71-4.17,9.62-3.55c.7,0,1.42.23,2.12.33,1.62.21,3.17.25,4.79.32a35.9,35.9,0,0,0,5-.25,38.59,38.59,0,0,0,5.42-1.11,5.2,5.2,0,0,0,1-.26,3.86,3.86,0,0,1,2-2.19,23.21,23.21,0,0,1-2.54,1,32.2,32.2,0,0,1-7.07,1.46,35,35,0,0,1-5.22.11c-1.76-.09-3.49-.37-5.24-.49a19.91,19.91,0,0,0-5.17.24c-1.81.34-3.86,1.09-4.69,2.88a3.63,3.63,0,0,0-.22.6S145.89,105.4,146.2,105.58Z"/><path class="cls-21" d="M147,106.16l-.53-.31s1.46-3.73,9.26-3a61.33,61.33,0,0,0,9.67.59,24.39,24.39,0,0,0,9.18-1.94c-.18.81-1.11,1.19-1.91,1.4a35.13,35.13,0,0,1-9.76,1.23c-3.24-.09-6.49-.91-9.72-.72a13.71,13.71,0,0,0-4,.83,3.93,3.93,0,0,0-1.33.76C147.77,105.11,146.8,106,147,106.16Z"/><path class="cls-21" d="M1.38,130.66s15.8-2.08,18.62-4v1s-5.24,1.91-17.91,3.59Z"/><path class="cls-21" d="M159.67,126.57s5-2.57,18.57-3.81l1.5.92s-14.93,1.15-20.07,4.25Z"/><path class="cls-21" d="M159.67,124.8s2.42-1.92,17.94-3.75l.84.7s-13.46,1.13-18.78,4Z"/><path class="cls-22" d="M158.91,107c-.12,4.34-12.58,5-12.58,5l-.32-6.76c1.05,2.09,4,.54,4,.54,3.08-2,4.63-2.08,4.63-2.08S159,102.67,158.91,107Z"/><path class="cls-21" d="M3.89,153.25s1.82-1.22,1.67-2.11c0-.17,1.76-.66,1.88-.7a36.26,36.26,0,0,1,6.7-1.15,50.78,50.78,0,0,1,6.64.26,56.67,56.67,0,0,0,7,.27,8.41,8.41,0,0,0,4.07-1.16,3.44,3.44,0,0,0,1.57-2.31,2.4,2.4,0,0,1-.26,2.77,7.18,7.18,0,0,1-3.13,1.56,21,21,0,0,1-6.66.51c-2.26-.15-4.47-.63-6.74-.66h-.5a31.62,31.62,0,0,0-8,1.19c-.7.2-1.41.42-2.1.67A9.88,9.88,0,0,0,3.89,153.25Z"/><path class="cls-21" d="M6,149.29l-.68.86c.06-.08.35-.12.43-.15L7,149.63a41.55,41.55,0,0,1,4.26-.95,32.64,32.64,0,0,1,5.75-.46c2,0,3.93.46,5.9.65a24.33,24.33,0,0,0,6-.16,8.87,8.87,0,0,0,2.38-.67,4.26,4.26,0,0,0,1.85-1.59l-.47-.34c-2.25,2.53-6.63,2.53-9.7,2.14-2.19-.28-4.37-.71-6.58-.78A25.48,25.48,0,0,0,6,149.29Z"/><path class="cls-23" d="M21.27,145.76c.87-4.25,12.19-5,12.19-5l.32,6.77c-1.05-2.09-4-.54-4-.54-3.08,1.95-4.63,2.08-4.63,2.08S20.29,150.53,21.27,145.76Z"/><path class="cls-24" d="M21.23,146.66l-.42-8.6-.71-14.91s1.46-8.21,26-8.51H61l22.8,2,16.9,1.13,20.63.06,15.71-1.77,12.71-2.78,5.79-1.9,3.36-2.9,1,21.16-5.15,4.08-6.16,2.66L137.12,139l-11.44,1.56-10.19.8-15.2-.76L89,139.57l-9.92-1.42-16-.56h-11l-16.44,2.69-10.46,3-2.07.89A6.11,6.11,0,0,0,21.23,146.66Z"/><path class="cls-25" d="M20,123.94h0c1.4-3.35,5.07-5.12,8.55-6.15a70.05,70.05,0,0,1,17.32-2.34,220.78,220.78,0,0,1,29.2,1.11c4.49.45,9,.72,13.47,1.07a272.8,272.8,0,0,0,28.59.9c12.88-.38,25.8-2.14,38-6.33a7.88,7.88,0,0,0,2.7-1.35,2.83,2.83,0,0,0,1-2.69,24,24,0,0,1-6.67,3.4,97.54,97.54,0,0,1-26.69,5.16,215.82,215.82,0,0,1-24.66.21c-4.61-.22-9.29-.71-13.92-1l-14.68-1-4.12-.26c-10.33-.67-20.73-1.34-31-.09a39.77,39.77,0,0,0-12.54,3.27,10,10,0,0,0-3.33,2.3A4.65,4.65,0,0,0,20,123.94Z"/><path class="cls-21" d="M20,122.52h0c1.4-3.35,5.07-5.12,8.55-6.15A70.05,70.05,0,0,1,45.9,114a220.78,220.78,0,0,1,29.2,1.11c4.49.45,9,.72,13.47,1.07,9.51.72,18.5,1.23,28.54,1.1a112.77,112.77,0,0,0,38-6.53,11.37,11.37,0,0,0,3.13-1.81,1.89,1.89,0,0,0,.6-2.23,24,24,0,0,1-6.67,3.4,97.54,97.54,0,0,1-26.69,5.16,215.82,215.82,0,0,1-24.66.21c-4.61-.22-9.29-.71-13.92-1l-14.68-1-4.12-.26c-10.33-.67-20.73-1.34-31-.09a40,40,0,0,0-12.54,3.26,10.21,10.21,0,0,0-3.33,2.31A4.65,4.65,0,0,0,20,122.52Z"/><path class="cls-26" d="M21.21,146.2a3.49,3.49,0,0,1,1.76-4s3.6-2.57,14.9-4.17q3.29-.47,6.6-.73c6.16-.5,12.35-.64,18.52-.54a264,264,0,0,1,28.65,2.33,163.37,163.37,0,0,0,27.52,1.32,145.35,145.35,0,0,0,15.59-1.53c9.09-1.4,18.21-3.82,25.13-9.88.06,1.74-1.25,3.06-2.71,4a45.52,45.52,0,0,1-13.67,5.48,117.18,117.18,0,0,1-27.73,3.31A224.2,224.2,0,0,1,86.94,140c-7.41-.89-14.88-1.3-22.34-1.54-6.5-.21-13-.24-19.52.18a108,108,0,0,0-12.65,1.72,31,31,0,0,0-7.19,2.13c-1.66.76-3.7,1.46-4,3.47Z"/><path class="cls-21" d="M21.21,147.64a3.49,3.49,0,0,1,1.76-4s3.6-2.57,14.9-4.17q3.29-.47,6.6-.73c6.16-.5,12.35-.64,18.52-.54,9.62.16,19,1.21,28.59,2.13a254.48,254.48,0,0,0,26.47,1.42,120.47,120.47,0,0,0,16.7-1.47c8.69-1.5,21.26-4.15,25.3-10.74a6.61,6.61,0,0,1-2.88,4.9,45.52,45.52,0,0,1-13.67,5.48,117.7,117.7,0,0,1-27.73,3.31,226,226,0,0,1-28.83-1.82c-7.41-.89-14.88-1.3-22.34-1.54-6.5-.21-13-.25-19.52.18a108,108,0,0,0-12.65,1.72,30.5,30.5,0,0,0-7.19,2.13c-1.66.76-3.7,1.46-4,3.47Z"/><path class="cls-27" d="M47.91,122.64a4.85,4.85,0,0,0-2.42.38,17.33,17.33,0,0,0-2.55.85,7,7,0,0,0-4,3.72c-.18.48-.47,1.19,0,1.61s1,.28,1.44.23c1.39-.16,2.8-.27,4.2-.38a1.34,1.34,0,0,1,.4,0c.25.05.46.18.36.46-.17.52-.82.94-1.24,1.23A11.85,11.85,0,0,1,41.41,132c-.81.29-1.63.56-2.47.79.45-.8,0-.65,0-.65a3.93,3.93,0,0,0-1.72,1.51c-.2.33-.47.87-.19,1.23.71.93,2.25,0,3-.31,1.22-.51,2.42-1.06,3.61-1.65a6.75,6.75,0,0,0,3-2.6c.37-.69.49-1.68-.37-2-1.7-.71-3.63.14-5.36,0,0,0-.58,0-.5-.19,1.06-1.83,4.73-3.16,4.73-3.16,1.3-.59.83,0,.83,0l-.95,1.1a2.07,2.07,0,0,0,.4,0,3,3,0,0,0,.6-.34,10.69,10.69,0,0,0,1.2-.93C47.71,124.37,49,123,47.91,122.64Z"/><path class="cls-27" d="M51.44,126.23c.52.27,1.21-.51,1.39-.93a.72.72,0,0,0,0-.48.53.53,0,0,0-.6-.33,1.17,1.17,0,0,0-.84.43,1.32,1.32,0,0,0-.27.9A.49.49,0,0,0,51.44,126.23Z"/><path class="cls-27" d="M80.82,128.66c-3.66,2.72-3.33-.76-3.33-.76,4.34-2.32,3.93-5.24,3.92-5.25a.54.54,0,0,0-.31-.48c-.27-.1-.54.09-.76.23a11.87,11.87,0,0,0-1.66,1.34,9,9,0,0,0-1.46,1.68,6.14,6.14,0,0,0-1,2.56s0,.54,0,.54c-.21.1-1.93.89-1.66,0a5.8,5.8,0,0,1,.56-.92,1.43,1.43,0,0,0,.21-.67.64.64,0,0,0-.47-.59.88.88,0,0,0-.32-.07c.77-.47.13-.9.13-.9a4,4,0,0,0-4.78,2.74c-1.38,1.41-2,.28-2,.28s.43-.43.46-.47c.26-.4,1.22-1.78.38-2a1.18,1.18,0,0,0-1,.28,5,5,0,0,0-.82.64,1.39,1.39,0,0,0-.49,1,.9.9,0,0,0,.34.66c-2,2.1-1.84-.76-1.84-.76a19.54,19.54,0,0,0,3.2-2.89A23.33,23.33,0,0,0,70,122.6c.23-.33.69-1,.48-1.48s-.79-.24-1.08-.07a14.24,14.24,0,0,0-3.49,2.68,9.64,9.64,0,0,0-1.71,2.53,6.8,6.8,0,0,0-.54,1.69,1.75,1.75,0,0,1,0,.33,3.12,3.12,0,0,1-1.92.89c-.27,0-.7,0-.72-.37a1.38,1.38,0,0,1,.39-.8,5.42,5.42,0,0,1,.6-.67.43.43,0,0,1,.1-.09,1.63,1.63,0,0,0,.81-.92.72.72,0,0,0-.23-.62c-.14-.17-.27-.44-.5-.48s-.36.11-.52.23l-.59.48-1.21,1c-1.95,1.72-1.73,1.13-1.73,1.13a5.39,5.39,0,0,0,1.15-1.28c.2-.38.4-1.25-.15-1.46s-1.26.33-1.68.67a14,14,0,0,0-1.33,1.23c-.63.64-1.24,1.31-1.81,2l0,0c-.37.06-.3-.27-.2-.51a3.46,3.46,0,0,1,.27-.5,2.71,2.71,0,0,1,.47-.59c.22-.18.48-.3.7-.48a1.43,1.43,0,0,0,.28-.32.62.62,0,0,0,.11-.32c0-.17-.24-.27-.37-.33a1,1,0,0,0-.59-.06,1.77,1.77,0,0,0-1,.68,7,7,0,0,0-1.06,2c0,.05,0,.19-.08.22-3.77,3.15-3.39.53-3.39.53s.29-.2.34-.24L50,129a7.57,7.57,0,0,0,.66-.61,5.27,5.27,0,0,0,.57-.68c.21-.31.31-1.13-.26-1.12a2.11,2.11,0,0,0-1,.5,4.16,4.16,0,0,0-2,3.47,1.67,1.67,0,0,0,.73,1.46,1.26,1.26,0,0,0,1,0,6.07,6.07,0,0,0,2-1.44c.18-.17.35-.35.51-.53.62-1,.57.53.57.53.31,1,1.2.35,1.2.35.75-1,1.62-2,2.47-3a3.88,3.88,0,0,1,.39-.42c.15-.12.45-.27.53,0s-.35.66-.59.91a4.45,4.45,0,0,0-.79,1,1.31,1.31,0,0,0-.19.84.71.71,0,0,0,.88.61,1.5,1.5,0,0,0,.58-.38l2.66-2.66c.07-.07.32-.36.43-.21s0,.3,0,.39a2.83,2.83,0,0,1-.4.37,2.24,2.24,0,0,0-.51.78,1.24,1.24,0,0,0,0,.87s0,0,0,0c.13,2,4.16-1.27,4.16-1.27.65,3.46,3.46.56,3.46.56a2.27,2.27,0,0,0,2.77-.58c-.08.12,0,.45,0,.57a1.34,1.34,0,0,0,.3.48,2.42,2.42,0,0,0,2.34.55,2.57,2.57,0,0,0,1-.66s.38-.39.35-.43c.73,1,2.46-.27,2.46-.27,0,.89.36,1.83,1.39,1.82a4.42,4.42,0,0,0,2.12-.76C80.09,129.88,81.63,129.15,80.82,128.66Zm-.67-4.86a4.56,4.56,0,0,1-2.3,2.69A7.05,7.05,0,0,1,80.15,123.8Zm-11.1-1.68s-2,3.31-3.52,3.91A8.57,8.57,0,0,1,69.05,122.12Zm4,4.85s-.94,1.05-.17,1.78v.31l-.38.17s-.27.4-1.42.11c0,0-.24-.29.16-1.49,0,0,.14.13,1.81-1.1Z"/><path class="cls-27" d="M88.33,125.68a.84.84,0,0,1,.2-.45c.33-.38,1.18-.58,1.5-.08C90.76,126.25,88.14,127.21,88.33,125.68Z"/><path class="cls-27" d="M85.5,130.7c-.78-1.43.35-3,1.57-3.79a1.69,1.69,0,0,1,.91-.31.74.74,0,0,1,.74.52,1,1,0,0,1-.38.87,3.49,3.49,0,0,1-.81.62c-.43.24-1.35.68-1,1.34.17.32.6.37,1,.37a4.46,4.46,0,0,0,1.2-.13,1.89,1.89,0,0,0,1-.65c-.06.24.07.51-.06.71a.43.43,0,0,1-.15.15,7,7,0,0,1-1.23.76,2.38,2.38,0,0,1-2,.22A1.64,1.64,0,0,1,85.5,130.7Z"/><path class="cls-27" d="M101.22,126.6s-.35,1.1.83.13c0,0,3-2.6,1-2.78a13.64,13.64,0,0,0-5.65,4.23,10.08,10.08,0,0,0-.84,1.28,2.7,2.7,0,0,0-.31,2.35,1.68,1.68,0,0,0,.92.78,3.15,3.15,0,0,0,.85.23,3.57,3.57,0,0,0,2-.36c.71-.32,1.42-.66,2.1-1a9.24,9.24,0,0,0,2.42-1.69s.77.56-1.59,2c0,0-5.23,4.64-8.54,1.12,0,0-2.54-2.77,3-7.12,0,0,5.62-4.34,7.51-2,0,0,1.42,1.51-2.48,4.73,0,0-3.42,2.45-3.87.7C98.54,129.23,98,128.06,101.22,126.6Z"/><path class="cls-27" d="M108,127.15a.82.82,0,0,1,.06-.38,1.26,1.26,0,0,1,1.39-.72.77.77,0,0,1,.36.15c.29.23.16.66,0,.93a1.52,1.52,0,0,1-.88.65.76.76,0,0,1-.74-.18A.63.63,0,0,1,108,127.15Z"/><path class="cls-27" d="M142.17,126.22a7.71,7.71,0,0,1-2.45,2.2,1.94,1.94,0,0,1-1.18.32.76.76,0,0,1-.66-.88,8.23,8.23,0,0,0,3.55-2.9,1.65,1.65,0,0,0,.34-.75.66.66,0,0,0-.36-.69.93.93,0,0,0-.61,0,6.66,6.66,0,0,0-4.14,4.16,2.65,2.65,0,0,1-.2.49,1.77,1.77,0,0,1-.39.43,14.88,14.88,0,0,1-2,1.49.93.93,0,0,1-.8.21,8.28,8.28,0,0,1,1.48-1.54,1.94,1.94,0,0,0,.69-1.91c-.08-.26-.26-.48-.34-.73s-.09-.84-.43-1a.62.62,0,0,0-.33,0,1,1,0,0,0-.77.93,1,1,0,0,1,0,.39.83.83,0,0,1-.19.23l-1.6,1.44c-.72.64-1.43,1.28-2.16,1.9a4.1,4.1,0,0,1-1.27.83,1,1,0,0,1-.79,0c-.56-.37.05-1,.36-1.26a6.56,6.56,0,0,0,1.43-1.72c.15-.28.26-.69,0-.85a.56.56,0,0,0-.36,0,3,3,0,0,0-2.54,2.08,4.94,4.94,0,0,1-.34,1.07,2.17,2.17,0,0,1-.57.6c-.51.4-2.22,1.63-2.83.92.3-.05.59-.38.81-.57a6.28,6.28,0,0,0,.83-.8,2.24,2.24,0,0,0,.46-1.19c0-.53-.36-.78-.5-1.24a4.27,4.27,0,0,1,0-.77h-.62c-.89.08-.84,1.19-.84,1.19a43.18,43.18,0,0,1-3.93,3.08c-3.63,1.82-3.19-.51-3.19-.51a5.25,5.25,0,0,0,2.37-.75c.52-.31,1.41-.81,1.46-1.49.09-1-1.4-1.09-2.07-.95a4.27,4.27,0,0,0-3,2.89c0,.11-.07.22-.1.33-4,3-3.43-.54-3.43-.54,4.43-2.88,3.85-5.56,3.85-5.56-.11-.84-1.35.22-1.35.22-4,2.93-3.86,5.89-3.86,5.89-3.59,2.27-3.34-.1-3.34-.1a14.81,14.81,0,0,0,2-1.58c.23-.3.56-.81.13-1.07a1.26,1.26,0,0,0-.72-.09,3.28,3.28,0,0,0-2.6,4c1.39,2.86,4.51-.55,4.51-.55.23,3.9,4.81.06,4.81.06.84,3.15,4.27.85,4.27.85l4.46-3.79c.64,2.18-.82,2.9-.82,2.9-.6-.69-1.11-.51-1.11-.51-1.6.53-.6,1.64-.6,1.64a4.13,4.13,0,0,0,4.73-1.25,1.39,1.39,0,0,1,.85-.55c.08.53-.12,1,.47,1.35a1.65,1.65,0,0,0,1.54,0,5,5,0,0,0,1.27-1l4.37-4.25a2.38,2.38,0,0,1-1,3,1.44,1.44,0,0,0-2,.35c-.22.52.29,1.08.83,1.23a2.67,2.67,0,0,0,1.53-.1,8.78,8.78,0,0,0,3.43-2.58,1.15,1.15,0,0,0,.87,1.27,2.29,2.29,0,0,0,1.63-.26,10.06,10.06,0,0,0,3-2.7,1.4,1.4,0,0,0,.29-.48A.46.46,0,0,0,142.17,126.22Zm-1.84-1.57s.31,1.19-2.12,2.39C138.21,127,139.07,124.77,140.33,124.65ZM117,129s1-1.09,1.11,0a3.08,3.08,0,0,1-1.64,1.13S115.44,130.24,117,129ZM113.59,126a5.69,5.69,0,0,1-2.26,2.8A7.39,7.39,0,0,1,113.59,126Z"/><ellipse class="cls-27" cx="116.98" cy="126.32" rx="0.84" ry="0.83"/><ellipse class="cls-27" cx="119.91" cy="126.32" rx="0.84" ry="0.83"/><ellipse class="cls-27" cx="129.93" cy="125.67" rx="1.02" ry="0.8" transform="translate(-45.99 167.24) rotate(-57.34)"/><ellipse class="cls-27" cx="142.16" cy="121.6" rx="1.15" ry="0.8" transform="matrix(0.54, -0.84, 0.84, 0.54, -36.93, 175.66)"/><ellipse class="cls-27" cx="139.37" cy="122.66" rx="1.15" ry="0.8" transform="translate(-39.11 173.8) rotate(-57.34)"/></g></g></svg>